# Blender v2.80 (sub 75) OBJ File: ''
# www.blender.org
mtllib SwordAuraBase.mtl
o Plane
v -340.919800 112.651459 -0.000005
v 340.919800 112.651459 -0.000005
v -340.919800 -112.651459 0.000005
v 340.919800 -112.651459 0.000005
v 145.571472 19.412397 -0.000001
v 79.880760 19.588976 -0.000001
v 148.220871 19.406706 -0.000001
v 79.784912 -19.188108 0.000001
v 81.625320 -19.199265 0.000001
v 148.219986 -19.673655 0.000001
v 77.250458 19.594625 -0.000001
v 12.032961 19.769957 -0.000001
v 13.669986 -18.717030 0.000001
v 11.842834 -18.705956 0.000001
v 12.028004 19.769966 -0.000001
v 11.905062 19.770351 -0.000001
v 11.718277 -18.705082 0.000001
v 11.714835 -18.705061 0.000001
v -50.467285 -18.262102 0.000001
v -52.185749 -18.251688 0.000001
v -49.432896 19.935200 -0.000001
v -51.906742 19.940512 -0.000001
v -64.939735 -15.861057 0.000001
v -84.099449 -17.212742 0.000001
v -80.035759 -16.603868 0.000001
v -84.217018 -17.205395 0.000001
v -88.452080 -16.959784 0.000001
v -96.019127 -14.424845 0.000001
v -103.258179 -16.598906 0.000001
v -96.418335 -14.415452 0.000001
v -103.413391 -16.621096 0.000001
v -109.009232 -17.522192 0.000001
v -65.291275 -15.802183 0.000001
v -71.172623 -13.857045 0.000001
v -71.335129 -13.809141 0.000001
v -71.565918 -13.875920 0.000001
v -79.922943 -16.587574 0.000001
v -96.228775 -14.361680 0.000001
v -64.277481 18.127190 -0.000001
v -63.797115 18.192894 -0.000001
v -70.041420 17.202866 -0.000001
v -70.273918 17.168480 -0.000001
v -70.602188 17.275095 -0.000001
v -78.736237 20.149954 -0.000001
v -96.190468 17.325607 -0.000001
v -95.874962 17.423500 -0.000001
v -96.477295 17.405031 -0.000001
v -103.600700 19.553581 -0.000001
v -83.116287 20.644028 -0.000001
v -83.292480 20.664061 -0.000001
v -87.857285 20.066652 -0.000001
v -88.040909 20.042667 -0.000001
v -103.838852 19.577517 -0.000001
v -109.756310 20.229231 -0.000001
v -114.808838 -16.606693 0.000001
v -114.969788 -16.584148 0.000001
v -120.562508 -14.075679 0.000001
v -133.102112 -16.823475 0.000001
v -126.853813 -15.771352 0.000001
v -139.738586 -15.936685 0.000001
v -158.536560 -16.205929 0.000001
v -151.833435 -15.535165 0.000001
v -164.386261 -14.966680 0.000001
v -120.718262 -14.013902 0.000001
v -126.681351 -15.745911 0.000001
v -120.879311 -14.055534 0.000001
v -139.921066 -15.914333 0.000001
v -145.513504 -13.934453 0.000001
v -151.649536 -15.518645 0.000001
v -145.830673 -13.921879 0.000001
v -164.547165 -14.936160 0.000001
v -169.856018 -12.812068 0.000001
v -145.677826 -13.882554 0.000001
v -170.003296 -12.759758 0.000001
v -123.106316 16.903805 -0.000001
v -122.856773 16.837019 -0.000001
v -122.600220 16.927534 -0.000001
v -129.312424 18.718325 -0.000001
v -148.317749 16.149569 -0.000001
v -148.051956 16.237743 -0.000001
v -141.625702 18.489340 -0.000001
v -148.547318 16.208549 -0.000001
v -154.449387 17.790836 -0.000001
v -154.681458 17.799509 -0.000001
v -160.401367 18.032129 -0.000001
v -165.868073 17.053209 -0.000001
v -165.655380 17.088388 -0.000001
v -116.211189 19.324467 -0.000001
v -115.961555 19.357777 -0.000001
v -129.552719 18.737658 -0.000001
v -135.505264 19.282198 -0.000001
v -141.387619 18.519171 -0.000001
v -175.806152 -14.157648 0.000001
v -170.158340 -12.793357 0.000001
v -171.691635 14.591348 -0.000001
v -171.466400 14.679824 -0.000001
v -171.889969 14.634081 -0.000001
v -176.782288 15.780452 -0.000001
v -188.876862 -13.295070 0.000001
v -182.922241 -14.464644 0.000001
v -175.996857 -14.165026 0.000001
v -189.041809 -13.266265 0.000001
v -177.040024 15.783195 -0.000001
v -183.413498 15.856730 -0.000001
v -194.752380 -10.569406 0.000000
v -194.910706 -10.502988 0.000000
v -195.053619 -10.531651 0.000000
v -200.278793 -11.695386 0.000001
v -195.986740 11.822285 -0.000001
v -195.746460 11.920169 -0.000001
v -189.775848 14.545880 -0.000001
v -189.529556 14.592995 -0.000001
v -204.300964 -11.801970 0.000001
v -200.387054 -11.697947 0.000001
v -196.156357 11.853021 -0.000001
v -200.324951 12.677472 -0.000001
v -204.405960 12.674881 -0.000001
v -204.247849 12.674974 -0.000001
v -228.062607 -8.148648 0.000000
v -228.719345 -8.059675 0.000000
v -245.547775 -5.472391 0.000000
v -246.012894 -5.409909 0.000000
v -228.788422 8.368435 -0.000000
v -227.843246 8.524165 -0.000000
v -260.027588 -3.259053 0.000000
v -259.650635 -3.313167 0.000000
v -260.050476 2.842472 -0.000000
v -259.508057 2.935718 -0.000000
v -246.056488 5.318053 -0.000000
v -245.387085 5.428871 -0.000000
v -275.417908 -0.385537 0.000000
v -275.417908 -0.396291 0.000000
v -275.416443 -0.385230 -0.000000
v -275.416504 -0.396554 0.000000
v -274.775513 -0.755741 0.000000
v -275.282715 -0.669640 0.000000
v -275.269684 -0.079446 -0.000000
v -275.416443 -0.374078 -0.000000
v -274.512360 0.065965 -0.000000
v -274.775513 -0.809173 0.000000
v 148.236969 -19.673758 0.000001
v 148.851669 -19.678137 0.000001
v 149.492294 -19.735590 0.000001
v 164.288025 18.713791 -0.000001
v 164.387680 18.536118 -0.000001
v 149.919250 19.444611 -0.000001
v 149.362350 19.444613 -0.000001
v 150.492020 -19.735590 0.000001
v 163.878067 -19.735590 0.000001
v 149.653351 -19.735590 0.000001
v 148.851669 19.405022 -0.000001
v 149.351547 19.411869 -0.000001
v 148.827225 19.405071 -0.000001
v 163.878067 19.444611 -0.000001
v 152.868469 19.444611 -0.000001
v 150.159744 19.444611 -0.000001
v 164.491791 -18.641499 0.000001
v 164.673569 -18.317463 0.000001
v 166.979111 -14.207320 0.000001
v 167.757736 -12.819255 0.000000
v 167.860092 -12.636790 0.000001
v 172.324692 -9.998690 0.000000
v 172.111816 -10.124477 0.000000
v 172.324768 9.707710 -0.000001
v 172.111893 9.833495 -0.000000
v 167.860092 12.345810 -0.000001
v 167.740723 12.558582 -0.000000
v 166.945343 13.976529 -0.000001
v 240.863235 -12.025188 0.000001
v 236.427444 -9.388187 0.000000
v 236.398666 -9.371089 0.000000
v 206.898468 -9.116110 0.000000
v 203.934296 -9.090489 0.000000
v 173.038696 -9.978175 0.000000
v 236.398773 9.080211 -0.000001
v 236.310577 9.079449 -0.000001
v 203.934372 8.799611 -0.000001
v 202.181854 8.849959 -0.000000
v 240.863358 11.734310 -0.000001
v 240.834610 11.717216 -0.000001
v 244.175064 18.789711 -0.000001
v 244.153748 18.744274 -0.000000
v 244.175064 -20.022593 0.000001
v 244.182541 -20.022964 0.000001
v 250.621674 -18.241590 0.000001
v 245.366043 -20.068542 0.000001
v 245.331970 -20.080389 0.000001
v 240.884583 -12.076710 0.000001
v 250.657547 -18.248850 0.000001
v 256.187988 -19.367893 0.000001
v 256.098572 17.430811 -0.000001
v 256.063293 17.423203 -0.000001
v 250.621674 16.249710 -0.000001
v 250.587601 16.266312 -0.000001
v 245.331970 18.827410 -0.000001
v 245.324509 18.827166 -0.000001
v 256.191833 -19.365417 0.000001
v 256.791473 -18.983692 0.000001
v 256.950745 -17.409189 0.000001
v 256.792511 -18.973547 0.000001
v 260.360870 -18.355089 0.000001
v 256.972687 -17.415285 0.000001
v 260.651855 15.984510 -0.000001
v 260.628510 15.980527 -0.000001
v 257.023956 15.366011 -0.000001
v 257.021912 15.376834 -0.000000
v 256.701965 17.046610 -0.000001
v 256.698090 17.049086 -0.000001
v 262.700775 -17.772663 0.000000
v 262.711090 -17.755693 0.000001
v 262.685699 -17.776442 0.000000
v 264.304260 -15.134489 0.000001
v 264.318359 -15.134468 0.000001
v 266.491669 -15.131090 0.000001
v 266.511230 -15.117233 0.000001
v 269.526459 -12.980289 0.000001
v 266.730560 11.421390 -0.000000
v 263.784729 12.219715 -0.000001
v 266.749603 11.416310 -0.000001
v 263.786346 12.231079 -0.000001
v 264.034241 13.989579 -0.000001
v 262.471344 15.638411 -0.000001
v 264.024078 14.000328 -0.000001
v 262.459625 15.640639 -0.000001
v 272.263214 -8.356790 0.000000
v 269.544098 -12.950504 0.000001
v 272.307343 -8.331227 0.000000
v 279.114563 -4.388789 0.000000
v 279.759003 -3.773989 0.000000
v 279.118713 -4.384829 0.000000
v 279.950165 -3.591489 0.000000
v 279.760406 -3.772631 0.000000
v 279.951263 -3.589553 0.000000
v 280.245667 -2.576089 0.000000
v 280.095795 -3.325572 0.000000
v 280.094666 -3.331189 0.000000
v 280.244537 -2.570568 0.000000
v 280.094757 -1.833989 0.000000
v 280.093689 -1.831957 0.000000
v 279.759003 -1.378289 -0.000000
v 279.949036 -1.559613 -0.000000
v 279.950256 -1.560789 0.000000
v 279.114746 -0.763389 -0.000000
v 279.754852 -1.374328 -0.000000
v 279.072784 -0.733800 0.000000
v 272.598663 3.830211 -0.000000
v 272.581329 3.867816 -0.000000
v 269.907349 9.668510 -0.000001
v 269.886993 9.679768 -0.000001
vt 1.000000 0.000000
vt 0.884946 0.430589
vt 0.875600 0.422634
vt 0.881851 0.581469
vt 0.885260 0.578900
vt 1.000000 1.000000
vt 0.911014 0.511434
vt 0.911012 0.511409
vt 0.910793 0.508140
vt 0.096066 0.501711
vt 0.000000 1.000000
vt 0.000000 0.000000
vt 0.096069 0.501660
vt 0.096069 0.501710
vt 0.910791 0.508131
vt 0.096284 0.500353
vt 0.097395 0.499707
vt 0.910581 0.506928
vt 0.910579 0.506922
vt 0.910300 0.506117
vt 0.910294 0.506100
vt 0.118605 0.487384
vt 0.139128 0.476396
vt 0.119400 0.486970
vt 0.164454 0.462857
vt 0.140110 0.475904
vt 0.200214 0.443743
vt 0.165840 0.462166
vt 0.206199 0.443731
vt 0.200446 0.443743
vt 0.221671 0.435439
vt 0.212562 0.447527
vt 0.212313 0.447391
vt 0.212914 0.447093
vt 0.231002 0.429620
vt 0.222032 0.435229
vt 0.240727 0.429959
vt 0.240349 0.429947
vt 0.256734 0.424310
vt 0.248194 0.435237
vt 0.247903 0.435047
vt 0.248524 0.434844
vt 0.264752 0.419965
vt 0.257046 0.424154
vt 0.273481 0.421036
vt 0.273141 0.420997
vt 0.292289 0.417936
vt 0.292638 0.417803
vt 0.282474 0.428321
vt 0.282137 0.428059
vt 0.282864 0.427929
vt 0.301265 0.414417
vt 0.310348 0.416919
vt 0.309995 0.416834
vt 0.329562 0.414229
vt 0.319816 0.425269
vt 0.319450 0.424973
vt 0.320192 0.424868
vt 0.339029 0.410213
vt 0.329928 0.414081
vt 0.348057 0.413212
vt 0.347708 0.413106
vt 0.370877 0.411041
vt 0.358925 0.423101
vt 0.358504 0.422748
vt 0.359388 0.422666
vt 0.377842 0.408283
vt 0.371147 0.410935
vt 0.384524 0.410565
vt 0.378100 0.408372
vt 0.423872 0.411495
vt 0.396935 0.423798
vt 0.396453 0.423325
vt 0.397276 0.423646
vt 0.405729 0.419543
vt 0.406434 0.419251
vt 0.427501 0.411518
vt 0.517648 0.412252
vt 0.517641 0.412252
vt 0.517460 0.412250
vt 0.613297 0.413030
vt 0.717384 0.413864
vt 0.713498 0.413839
vt 0.719058 0.413696
vt 0.617155 0.413055
vt 0.718309 0.413871
vt 0.718273 0.413871
vt 0.719042 0.413841
vt 0.720227 0.413696
vt 0.719875 0.413696
vt 0.740347 0.413696
vt 0.724200 0.413696
vt 0.744846 0.437966
vt 0.741094 0.417728
vt 0.796524 0.460720
vt 0.740948 0.416939
vt 0.746012 0.444259
vt 0.752423 0.456354
vt 0.746187 0.445204
vt 0.752735 0.456913
vt 0.846578 0.459701
vt 0.799094 0.460943
vt 0.853213 0.447994
vt 0.858112 0.416602
vt 0.853255 0.447918
vt 0.846707 0.459698
vt 0.858081 0.416804
vt 0.859798 0.416436
vt 0.859809 0.416435
vt 0.867567 0.427876
vt 0.867517 0.427802
vt 0.875548 0.422668
vt 0.876484 0.424339
vt 0.876479 0.424328
vt 0.882277 0.429053
vt 0.884929 0.430580
vt 0.882243 0.429071
vt 0.876957 0.431798
vt 0.876954 0.431750
vt 0.895852 0.457087
vt 0.909355 0.503388
vt 0.909294 0.503257
vt 0.899799 0.483000
vt 0.899773 0.482833
vt 0.895822 0.457037
vt 0.887238 0.437908
vt 0.891220 0.449329
vt 0.891193 0.449307
vt 0.886872 0.445763
vt 0.886874 0.445713
vt 0.887223 0.437860
vt 0.096066 0.501759
vt 0.096068 0.501760
vt 0.096265 0.502972
vt 0.097009 0.503354
vt 0.097009 0.503592
vt 0.118638 0.514465
vt 0.119191 0.514705
vt 0.139192 0.524012
vt 0.139875 0.524289
vt 0.164556 0.535773
vt 0.165519 0.536168
vt 0.200368 0.552383
vt 0.206108 0.551921
vt 0.222747 0.558882
vt 0.206267 0.551910
vt 0.213930 0.546744
vt 0.214372 0.546912
vt 0.214140 0.546617
vt 0.222989 0.559010
vt 0.231722 0.564201
vt 0.241879 0.562871
vt 0.267487 0.571930
vt 0.242159 0.562838
vt 0.258672 0.566294
vt 0.258908 0.566429
vt 0.250442 0.556783
vt 0.250886 0.556866
vt 0.250670 0.556634
vt 0.277318 0.568952
vt 0.295057 0.570735
vt 0.277588 0.568879
vt 0.294789 0.570635
vt 0.286122 0.561792
vt 0.286587 0.561848
vt 0.286346 0.561617
vt 0.304790 0.574670
vt 0.313954 0.570001
vt 0.331383 0.573608
vt 0.314207 0.569888
vt 0.322716 0.562385
vt 0.323181 0.562474
vt 0.322952 0.562200
vt 0.331619 0.573708
vt 0.340125 0.577772
vt 0.348332 0.573772
vt 0.370274 0.575276
vt 0.348559 0.573674
vt 0.358591 0.563982
vt 0.359176 0.564024
vt 0.358869 0.563744
vt 0.376486 0.576366
vt 0.376658 0.576398
vt 0.382618 0.573696
vt 0.423463 0.581010
vt 0.382783 0.573623
vt 0.395040 0.561588
vt 0.404243 0.570138
vt 0.395378 0.561291
vt 0.395617 0.561504
vt 0.404758 0.570399
vt 0.425984 0.581056
vt 0.517181 0.583022
vt 0.517186 0.583022
vt 0.517369 0.583026
vt 0.520049 0.583075
vt 0.617014 0.585166
vt 0.619713 0.585215
vt 0.717382 0.587321
vt 0.717407 0.587321
vt 0.719248 0.587596
vt 0.718309 0.587341
vt 0.719485 0.587596
vt 0.720715 0.587596
vt 0.740347 0.587596
vt 0.858112 0.588870
vt 0.741247 0.582740
vt 0.799094 0.540348
vt 0.741514 0.581301
vt 0.744895 0.563059
vt 0.746037 0.556898
vt 0.753782 0.544288
vt 0.746187 0.556088
vt 0.752423 0.544937
vt 0.752735 0.544379
vt 0.803442 0.540462
vt 0.846707 0.541593
vt 0.846749 0.541669
vt 0.853286 0.553602
vt 0.853255 0.553373
vt 0.858123 0.588871
vt 0.859809 0.589126
vt 0.859859 0.589074
vt 0.875731 0.585964
vt 0.867567 0.580965
vt 0.867620 0.580997
vt 0.875736 0.585953
vt 0.876616 0.584258
vt 0.876617 0.584213
vt 0.876849 0.577270
vt 0.876881 0.577297
vt 0.885282 0.578883
vt 0.885297 0.578808
vt 0.890842 0.567159
vt 0.887634 0.567174
vt 0.887655 0.567174
vt 0.910794 0.514760
vt 0.910793 0.514785
vt 0.910582 0.515932
vt 0.910300 0.516751
vt 0.910302 0.516745
vt 0.910581 0.515941
vt 0.909361 0.519462
vt 0.909355 0.519480
vt 0.895319 0.557480
vt 0.899307 0.537091
vt 0.899372 0.536978
vt 0.895293 0.557613
vt 0.890871 0.567097
vn -0.0000 -0.0000 -1.0000
vn -0.0003 0.0000 -1.0000
vn -0.0001 -0.0000 -1.0000
vn 0.0001 -0.0000 -1.0000
vn -0.0000 -0.0062 -1.0000
vn -0.0000 -0.0001 -1.0000
vn -0.0004 -0.0002 -1.0000
vn -0.0021 0.0022 -1.0000
usemtl None
s off
f 2/1/1 222/2/1 191/3/1
f 201/4/1 211/5/1 4/6/1
f 2/1/1 4/6/1 234/7/1
f 234/7/1 237/8/1 2/1/1
f 237/8/1 238/9/1 2/1/1
f 131/10/1 3/11/1 1/12/1
f 138/13/2 133/14/2 131/10/2
f 138/13/3 131/10/3 1/12/3
f 2/1/1 238/9/1 239/15/1
f 137/16/1 138/13/1 1/12/1
f 139/17/1 137/16/1 1/12/1
f 2/1/1 239/15/1 242/18/1
f 241/19/1 240/20/1 244/21/1
f 2/1/4 242/18/4 241/19/4
f 127/22/1 139/17/1 1/12/1
f 129/23/1 128/24/1 1/12/1
f 128/24/1 127/22/1 1/12/1
f 123/25/1 130/26/1 1/12/1
f 130/26/1 129/23/1 1/12/1
f 117/27/1 124/28/1 1/12/1
f 124/28/1 123/25/1 1/12/1
f 116/29/1 118/30/1 111/31/1
f 118/30/1 117/27/1 111/31/1
f 109/32/1 115/33/1 110/34/1
f 115/33/1 116/29/1 110/34/1
f 111/31/1 110/34/1 116/29/1
f 104/35/1 112/36/1 117/27/1
f 112/36/1 111/31/1 117/27/1
f 98/37/1 103/38/1 86/39/1
f 103/38/1 104/35/1 86/39/1
f 95/40/1 97/41/1 96/42/1
f 97/41/1 98/37/1 96/42/1
f 86/39/1 96/42/1 98/37/1
f 85/43/1 87/44/1 104/35/1
f 87/44/1 86/39/1 104/35/1
f 83/45/1 84/46/1 81/47/1
f 84/46/1 85/43/1 92/48/1
f 81/47/1 84/46/1 92/48/1
f 79/49/1 82/50/1 80/51/1
f 82/50/1 83/45/1 80/51/1
f 81/47/1 80/51/1 83/45/1
f 91/52/1 92/48/1 85/43/1
f 78/53/1 90/54/1 88/55/1
f 90/54/1 91/52/1 88/55/1
f 76/56/1 75/57/1 77/58/1
f 75/57/1 78/53/1 77/58/1
f 88/55/1 77/58/1 78/53/1
f 54/59/1 89/60/1 91/52/1
f 89/60/1 88/55/1 91/52/1
f 48/61/1 53/62/1 52/63/1
f 53/62/1 54/59/1 52/63/1
f 45/64/1 47/65/1 46/66/1
f 47/65/1 48/61/1 46/66/1
f 52/63/1 46/66/1 48/61/1
f 50/67/1 51/68/1 54/59/1
f 51/68/1 52/63/1 54/59/1
f 44/69/1 49/70/1 22/71/1
f 49/70/1 50/67/1 22/71/1
f 42/72/1 43/73/1 41/74/1
f 43/73/1 44/69/1 39/75/1
f 39/75/1 41/74/1 43/73/1
f 22/71/1 40/76/1 44/69/1
f 40/76/1 39/75/1 44/69/1
f 21/77/1 22/71/1 50/67/1
f 12/78/5 15/79/5 16/80/5
f 16/80/1 21/77/1 1/12/1
f 21/77/1 50/67/1 1/12/1
f 12/78/1 16/80/1 2/1/1
f 11/81/1 12/78/1 2/1/1
f 16/80/1 1/12/1 2/1/1
f 7/82/1 5/83/1 147/84/1
f 5/83/1 6/85/1 2/1/1
f 6/85/1 11/81/1 2/1/1
f 5/83/1 2/1/1 147/84/1
f 151/86/1 153/87/1 147/84/1
f 153/87/1 7/82/1 147/84/1
f 147/84/1 152/88/1 151/86/1
f 156/89/1 146/90/1 2/1/1
f 146/90/1 147/84/1 2/1/1
f 154/91/1 155/92/1 2/1/1
f 155/92/1 156/89/1 2/1/1
f 168/93/1 145/94/1 178/95/1
f 145/94/1 144/96/1 178/95/1
f 167/97/1 168/93/1 178/95/1
f 165/98/1 166/99/1 167/97/1
f 178/95/1 164/100/1 165/98/1
f 176/101/1 177/102/1 180/103/1
f 177/102/1 178/95/1 181/104/1
f 180/103/1 177/102/1 179/105/1
f 180/103/1 175/106/1 176/101/1
f 182/107/1 179/105/1 177/102/1
f 181/104/1 182/107/1 177/102/1
f 178/95/1 165/98/1 167/97/1
f 181/104/1 178/95/1 154/91/1
f 178/95/1 144/96/1 154/91/1
f 196/108/1 181/104/1 2/1/1
f 181/104/1 154/91/1 2/1/1
f 195/109/1 196/108/1 2/1/1
f 193/110/1 194/111/1 192/112/1
f 194/111/1 195/109/1 192/112/1
f 191/3/1 192/112/1 195/109/1
f 207/113/1 208/114/1 203/115/1
f 208/114/1 191/3/1 203/115/1
f 203/115/1 191/3/1 224/116/1
f 204/117/1 205/118/1 206/119/1
f 222/2/1 224/116/1 191/3/1
f 203/115/1 204/117/1 207/113/1
f 204/117/1 206/119/1 207/113/1
f 2/1/1 241/19/1 244/21/1
f 2/1/1 244/21/1 248/120/1
f 244/21/1 243/121/1 248/120/1
f 117/27/1 1/12/1 104/35/1
f 243/121/1 245/122/1 248/120/1
f 245/122/1 246/123/1 247/124/1
f 248/120/1 249/125/1 221/126/1
f 249/125/1 219/127/1 221/126/1
f 245/122/1 247/124/1 248/120/1
f 104/35/1 1/12/1 85/43/1
f 85/43/1 1/12/1 91/52/1
f 219/127/1 217/128/1 221/126/1
f 217/128/1 218/129/1 220/130/1
f 2/1/1 248/120/1 222/2/1
f 91/52/1 1/12/1 54/59/1
f 54/59/1 1/12/1 50/67/1
f 248/120/6 221/126/6 223/131/6
f 217/128/1 220/130/1 221/126/1
f 248/120/1 223/131/1 222/2/1
f 191/3/1 195/109/1 2/1/1
f 3/11/1 131/10/1 132/132/1
f 132/132/7 134/133/7 136/134/7
f 136/134/1 135/135/1 140/136/1
f 125/137/1 126/138/1 3/11/1
f 126/138/1 122/139/1 3/11/1
f 122/139/1 121/140/1 3/11/1
f 121/140/1 120/141/1 3/11/1
f 120/141/1 119/142/1 3/11/1
f 119/142/1 113/143/1 3/11/1
f 113/143/1 114/144/1 102/145/1
f 114/144/1 108/146/1 102/145/1
f 108/146/1 107/147/1 105/148/1
f 107/147/1 106/149/1 105/148/1
f 105/148/1 102/145/1 108/146/1
f 102/145/1 99/150/1 113/143/1
f 99/150/1 100/151/1 113/143/1
f 100/151/1 101/152/1 61/153/1
f 101/152/1 93/154/1 71/155/1
f 61/153/1 101/152/1 63/156/1
f 93/154/1 94/157/1 72/158/1
f 94/157/1 74/159/1 72/158/1
f 72/158/1 71/155/1 93/154/1
f 71/155/1 63/156/1 101/152/1
f 61/153/1 62/160/1 60/161/1
f 62/160/1 69/162/1 67/163/1
f 69/162/1 70/164/1 68/165/1
f 70/164/1 73/166/1 68/165/1
f 68/165/1 67/163/1 69/162/1
f 67/163/1 60/161/1 62/160/1
f 60/161/1 58/167/1 61/153/1
f 58/167/1 59/168/1 56/169/1
f 59/168/1 65/170/1 56/169/1
f 65/170/1 66/171/1 57/172/1
f 66/171/1 64/173/1 57/172/1
f 57/172/1 56/169/1 65/170/1
f 56/169/1 55/174/1 58/167/1
f 55/174/1 32/175/1 58/167/1
f 32/175/1 31/176/1 27/177/1
f 31/176/1 29/178/1 27/177/1
f 29/178/1 30/179/1 28/180/1
f 30/179/1 38/181/1 28/180/1
f 28/180/1 27/177/1 29/178/1
f 27/177/1 26/182/1 32/175/1
f 26/182/1 24/183/1 32/175/1
f 24/183/1 25/184/1 20/185/1
f 25/184/1 37/186/1 20/185/1
f 37/186/1 36/187/1 33/188/1
f 36/187/1 35/189/1 34/190/1
f 33/188/1 36/187/1 34/190/1
f 33/188/1 23/191/1 37/186/1
f 23/191/1 20/185/1 37/186/1
f 20/185/1 19/192/1 3/11/1
f 19/192/1 18/193/1 3/11/1
f 18/193/1 17/194/1 14/195/1
f 14/195/1 13/196/1 4/6/1
f 13/196/1 8/197/1 4/6/1
f 8/197/1 9/198/1 4/6/1
f 9/198/1 10/199/1 4/6/1
f 10/199/1 141/200/1 143/201/1
f 141/200/1 142/202/1 143/201/1
f 143/201/1 150/203/1 4/6/1
f 150/203/1 148/204/1 4/6/1
f 4/6/1 148/204/1 149/205/1
f 18/193/1 14/195/1 4/6/1
f 10/199/1 143/201/1 4/6/1
f 4/6/1 149/205/1 183/206/1
f 149/205/1 157/207/1 173/208/1
f 157/207/1 158/209/1 173/208/1
f 149/205/1 173/208/1 183/206/1
f 159/210/1 160/211/1 174/212/1
f 160/211/1 161/213/1 174/212/1
f 174/212/1 161/213/1 163/214/1
f 163/214/1 162/215/1 174/212/1
f 158/209/1 159/210/1 173/208/1
f 174/212/1 173/208/1 159/210/1
f 172/216/1 171/217/1 170/218/1
f 173/208/1 172/216/1 183/206/1
f 172/216/1 170/218/1 188/219/1
f 170/218/1 169/220/1 188/219/1
f 188/219/1 183/206/1 172/216/1
f 183/206/1 184/221/1 4/6/1
f 184/221/1 187/222/1 4/6/1
f 187/222/1 186/223/1 190/224/1
f 186/223/1 185/225/1 189/226/1
f 189/226/1 190/224/1 186/223/1
f 190/224/1 197/227/1 201/4/1
f 197/227/1 198/228/1 201/4/1
f 200/229/1 199/230/1 202/231/1
f 198/228/1 200/229/1 201/4/1
f 200/229/1 202/231/1 201/4/1
f 32/175/1 24/183/1 20/185/1
f 61/153/1 58/167/1 3/11/1
f 58/167/1 32/175/1 3/11/1
f 209/232/1 210/233/1 214/234/1
f 210/233/1 212/235/1 213/236/1
f 210/233/1 213/236/1 214/234/1
f 3/11/1 132/132/1 136/134/1
f 235/237/1 234/7/1 4/6/1
f 236/238/1 235/237/1 4/6/1
f 3/11/1 136/134/1 140/136/1
f 3/11/1 140/136/1 125/137/1
f 233/239/1 236/238/1 4/6/1
f 229/240/8 232/241/8 231/242/8
f 231/242/1 233/239/1 4/6/1
f 4/6/1 3/11/1 18/193/1
f 229/240/1 231/242/1 4/6/1
f 230/243/1 229/240/1 4/6/1
f 3/11/1 113/143/1 100/151/1
f 3/11/1 100/151/1 61/153/1
f 228/244/1 230/243/1 4/6/1
f 226/245/1 225/246/1 227/247/1
f 227/247/1 228/244/1 226/245/1
f 228/244/1 4/6/1 216/248/1
f 226/245/1 228/244/1 216/248/1
f 3/11/1 32/175/1 20/185/1
f 215/249/1 216/248/1 4/6/1
f 214/234/1 215/249/1 4/6/1
f 4/6/1 187/222/1 190/224/1
f 209/232/1 214/234/1 4/6/1
f 211/5/1 209/232/1 4/6/1
f 4/6/1 190/224/1 201/4/1
